<svg width="135" height="163" viewBox="0 0 135 163" fill="none" xmlns="http://www.w3.org/2000/svg">
<path d="M2.19932 129.552C10.6965 144 36.1417 165.935 69.945 138.091M69.945 138.091C112.199 103.286 70.4437 79.2948 45.258 95.5169C20.0722 111.739 40.8866 142.12 69.945 138.091ZM69.945 138.091C81.7471 138.24 108.335 135.372 120.271 122.696C135.191 106.853 127.581 70.6399 116.081 50.6399" stroke="#525252" stroke-width="3" stroke-dasharray="9 9"/>
<path d="M96.6596 22.7794C97.0294 16.9034 104.047 14.0811 108.382 18.0647L126.706 34.9023C130.497 38.3852 129.358 44.6304 124.582 46.5512L104.695 54.55C99.9188 56.4708 94.773 52.7533 95.0964 47.6159L96.6596 22.7794Z" fill="#525252"/>
<path d="M115 49.5C114.5 48.1667 113 44.6 111 41" stroke="white" stroke-width="3"/>
</svg>
